<?xml version="1.0" encoding="UTF-8"?><svg id="Logos" xmlns="http://www.w3.org/2000/svg" viewBox="0 0 512 512"><defs><style>.cls-1{fill:#fff;}</style></defs><path class="cls-1" d="M78.16146,190.07205c41.60003-13.10875,82.62676-27.96497,122.97503-44.53057l-20.1184-34.84609c-47.66652,59.28838-89.74589,123.0212-125.41322,190.22023-10.18918,19.19692-19.84285,38.67224-28.98904,58.38705-.39423,.84978,2.31843,5.43544,2.33027,5.45874,2.14555,4.22046,4.48233,8.37407,6.85777,12.46727,.75466,1.30038,10.05319,17.47645,10.93035,16.92008,51.23177-32.49564,106.17042-59.45825,163.96164-78.11452,56.86381-18.35688,116.73774-28.63253,176.59677-26.37981,33.51254,1.2612,66.78372,6.55415,98.9568,16.03986,.14526,.04283-2.76876-6.32128-2.33027-5.45874-2.14555-4.22046-4.48233-8.37407-6.85777-12.46727-2.38001-4.10106-4.78266-8.19682-7.36808-12.17264-.758-1.16565-2.1935-4.34388-3.56227-4.74744-57.23056-16.87352-117.5534-20.00445-176.57767-12.26719-59.94895,7.85848-118.24644,26.38301-173.0735,51.62063-31.03812,14.28726-61.01504,30.80248-89.86403,49.10102l20.1184,34.84609c32.01502-69.00905,70.49066-134.98003,114.9157-196.73991,12.69102-17.64311,25.86897-34.9296,39.48656-51.86737,.45984-.57196-2.50136-5.79528-2.33027-5.45874-2.14555-4.22046-4.48233-8.37407-6.85777-12.46727-.86025-1.48231-9.38221-17.5557-10.93035-16.92008-40.34827,16.5656-81.375,31.42182-122.97503,44.53057-.52073,.16409,8.43749,16.6327,9.18805,17.926,.9416,1.6225,9.03824,17.51631,10.93035,16.92008h0Z"/><path class="cls-1" d="M134.13704,342.40398c29.10619-57.18101,65.86115-110.37594,109.16193-157.73327,12.22863-13.37425,24.97931-26.25839,38.18494-38.66797l-20.1184-34.84609c-28.44704,59.12001-40.94843,125.21949-36.05668,190.64484,.12867,1.72097,1.65,4.12059,2.33027,5.45874,2.14555,4.22046,4.48233,8.37407,6.85777,12.46727,2.38001,4.10106,4.78266,8.19682,7.36808,12.17264,.61205,.9412,3.50241,3.94683,3.56227,4.74744-4.89175-65.42538,7.60966-131.52486,36.05668-190.64484,.40001-.83133-2.331-5.46018-2.33027-5.45874-2.14555-4.22046-4.48233-8.37407-6.85777-12.46727-.74031-1.27564-10.68132-17.15411-10.93035-16.92008-46.7572,43.93863-87.54795,94.10577-120.90319,148.92458-9.4199,15.48146-18.22322,31.32703-26.44368,47.47666-.4086,.80271,2.35039,5.49831,2.33027,5.45874,2.14555,4.22046,4.48233,8.37407,6.85777,12.46727,2.38001,4.10106,4.78266,8.19682,7.36808,12.17264,.32922,.50627,3.53149,4.80791,3.56227,4.74744h0Z"/><path class="cls-1" d="M162.08059,293.28996c29.25402-22.85336,65.93039-34.81449,103.03304-33.60174,.31233,.01021-2.79952-6.38178-2.33027-5.45874-2.14555-4.22046-4.48233-8.37407-6.85777-12.46727-2.38001-4.10106-4.78266-8.19682-7.36808-12.17264-.58332-.89701-2.46393-4.71154-3.56227-4.74744-37.1026-1.21275-73.77898,10.74835-103.03304,33.60174-1.24703,.97418,8.30659,16.40715,9.18805,17.926,.73402,1.2648,10.3928,17.34002,10.93035,16.92008h0Z"/><path class="cls-1" d="M312.11841,110.69539c-31.00917,71.71262-44.3226,150.46656-38.60905,228.38718,.126,1.71838,1.65232,4.12516,2.33027,5.45874,2.14555,4.22046,4.48233,8.37407,6.85777,12.46727,2.38001,4.10106,4.78266,8.19682,7.36808,12.17264,.61077,.93922,3.50379,3.94993,3.56227,4.74744-5.71355-77.92062,7.59987-156.67456,38.60905-228.38718,.38267-.88498-2.29428-5.38794-2.33027-5.45874-2.14555-4.22046-4.48233-8.37407-6.85777-12.46727-2.38001-4.10106-4.78266-8.19682-7.36808-12.17264-.34274-.52707-3.56324-4.7452-3.56227-4.74744h0Z"/><path class="cls-1" d="M319.3357,171.01246c9.93698-9.48887,21.78315-16.76883,34.84525-21.09471,9.98252-3.30599,29.13165-9.16506,36.98535,.9201l-7.63419-11.81765,.70519,1.17401-10.95961-19.90716c1.88556,4.21559-.86509,10.65785-2.69147,14.38474-2.61134,5.32868-6.27552,10.0988-9.67801,14.93443-7.45182,10.59057-15.0741,21.06115-22.86219,31.40693-15.76748,20.9457-32.22711,41.36095-49.30624,61.25091-.46413,.54051,2.52113,5.83416,2.33027,5.45874,2.14555,4.22046,4.48233,8.37407,6.85777,12.46727,.7805,1.3449,10.97927,16.86312,10.93035,16.92008,23.87038-27.79889,46.51191-56.639,67.78698-86.47221,8.22553-11.53434,21.85565-25.73406,14.88355-40.77003-4.03302-8.69757-9.11433-17.04654-14.15556-25.19247-2.53939-4.1033-5.05785-8.9243-9.30115-11.55046-6.15608-3.80998-14.56126-2.47153-21.28133-1.28358-17.90313,3.16485-34.45373,11.79695-47.57338,24.32498-1.36001,1.29868,8.21937,16.25686,9.18805,17.926,.74207,1.27868,10.70522,17.13506,10.93035,16.92008h0Z"/><path class="cls-1" d="M418.67157,117.15665c-26.98249,53.90603-42.30685,113.39954-44.6663,173.64403-.67694,17.28438-.25438,34.58711,1.17987,51.82341,.14445,1.73598,1.63646,4.09396,2.33027,5.45874,2.14555,4.22046,4.48233,8.37407,6.85777,12.46727,2.38001,4.10106,4.78266,8.19682,7.36808,12.17264,.61961,.95283,3.49414,3.92868,3.56227,4.74744-4.99882-60.07434,2.90226-120.99959,23.11757-177.80018,5.79985-16.29632,12.62716-32.20075,20.36887-47.66726,.40608-.81127-2.34461-5.48694-2.33027-5.45874-2.14555-4.22046-4.48233-8.37407-6.85777-12.46727-2.38001-4.10106-4.78266-8.19682-7.36808-12.17264-.33049-.50822-3.53517-4.80158-3.56227-4.74744h0Z"/><path class="cls-1" d="M429.0206,164.31915c11.41192-8.03145,24.39502-17.11147,39.08692-15.68426,5.98045,.58096,11.44621,2.77879,15.96848,6.73752,.4852,.42474,.83727,.9711,1.30625,1.40701l-8.00499-13.83991c-7.07927-14.54509-9.6652-18.89763-7.75781-13.05763,.4162,1.89221,.83488,3.65181,.84972,5.6034,.02953,3.88298-.89136,7.69271-2.24098,11.31313-5.37144,14.40911-16.38396,27.31494-25.50278,39.5197-9.37117,12.54251-19.19652,24.74545-29.45374,36.5744-11.83744,13.65131-24.25923,26.7806-37.1834,39.40664-1.37031,1.3387,8.20791,16.2371,9.18805,17.926,.74492,1.28358,10.73883,17.10719,10.93035,16.92008,25.63667-25.04529,49.22787-52.14023,70.39567-81.06552,5.27985-7.2148,10.59684-14.48031,15.36859-22.04474,4.44935-7.05336,8.68169-15.15011,8.61665-23.7036-.02778-3.6532-.92384-7.05372-2.38626-10.38392-3.52385-8.02444-8.1301-15.62462-12.60533-23.14193-4.69474-7.88603-9.25162-16.52098-17.96695-20.49528-17.43946-7.95262-34.81015,3.36859-48.72682,13.16283-2.17245,1.52892,19.84052,35.04165,20.1184,34.84609h0Z"/></svg>