<?xml version="1.0" encoding="UTF-8"?><svg id="Logos" xmlns="http://www.w3.org/2000/svg" viewBox="0 0 512 256"><defs><style>.cls-1{fill:#202124;}</style></defs><path class="cls-1" d="M100.10462,77.6808c35.70914-11.25671,70.92403-24.0084,105.5614-38.22491l-17.26957-29.91178c-40.87025,50.84812-76.95834,105.48742-107.55993,163.10668-8.78212,16.53571-17.09706,33.31402-24.97851,50.29707-.33845,.7293,1.99023,4.66596,2.0003,4.68576,1.84173,3.62283,3.84762,7.18828,5.88669,10.70186,.64786,1.11634,8.62908,15.0019,9.38258,14.52415,86.52601-54.86075,188.46711-93.572,292.21504-89.70115,28.81202,1.07498,57.40129,5.62747,85.0635,13.7721,.12496,.03679-2.3768-5.42636-2.0003-4.68576-1.84173-3.62283-3.84762-7.18828-5.88669-10.70186-2.043-3.52034-4.10542-7.03613-6.32474-10.44896-.65043-1.00021-1.88319-3.72934-3.05784-4.07519-100.04808-29.45729-206.99669-9.07076-300.02782,33.73014-26.68391,12.27649-52.44855,26.4734-77.25072,42.19891l17.26957,29.91178c27.46203-59.17554,60.44227-115.74504,98.52577-168.71751,10.9293-15.20217,22.28314-30.09311,34.01267-44.68624,1.23806-1.54032-6.92595-13.73164-7.88699-15.38763-.73851-1.27255-8.05329-15.06974-9.38258-14.52415-34.63736,14.21651-69.85226,26.9682-105.5614,38.22491-.44724,.14099,7.24272,14.27747,7.88699,15.38763,.80817,1.39258,7.75878,15.03602,9.38258,14.52415h0Z"/><path class="cls-1" d="M148.15389,208.44207c32.08314-62.9983,74.97251-120.1663,126.48211-168.59024l-17.26957-29.91178c-24.40886,50.779-35.12955,107.46321-30.95094,163.64896,.10982,1.47666,1.41691,3.53818,2.0003,4.68576,1.84173,3.62283,3.84762,7.18828,5.88669,10.70186,2.043,3.52034,4.10542,7.03613,6.32474,10.44896,.52508,.80746,3.00678,3.38868,3.05784,4.07519-4.17861-56.18575,6.54208-112.86996,30.95094-163.64896,.34323-.71405-2.00063-4.68641-2.0003-4.68576-1.84173-3.62283-3.84762-7.18828-5.88669-10.70186-.63551-1.09507-9.16932-14.72463-9.38258-14.52415-51.50959,48.42392-94.39896,105.59192-126.48211,168.59024-.3508,.68883,2.01771,4.72002,2.0003,4.68576,1.84173,3.62283,3.84762,7.18828,5.88669,10.70186,2.043,3.52034,4.10542,7.03613,6.32474,10.44896,.28257,.43453,3.03133,4.12726,3.05784,4.07519h0Z"/><path class="cls-1" d="M172.14055,166.28274c25.15356-19.61457,56.56234-29.85771,88.44325-28.84363,.26848,.00854-2.40308-5.47806-2.0003-4.68576-1.84173-3.62283-3.84762-7.18828-5.88669-10.70186-2.043-3.52034-4.10542-7.03613-6.32474-10.44896-.50026-.7693-2.11589-4.04523-3.05784-4.07519-31.8811-1.01409-63.28984,9.22918-88.44325,28.84363-1.06943,.83394,7.13093,14.08484,7.88699,15.38763,.63013,1.08579,8.91865,14.88592,9.38258,14.52415h0Z"/><path class="cls-1" d="M300.93257,9.54411c-26.60729,61.58609-38.02683,129.13699-33.14189,196.04687,.10765,1.47456,1.41879,3.54189,2.0003,4.68576,1.84173,3.62283,3.84762,7.18828,5.88669,10.70186,2.043,3.52034,4.10542,7.03613,6.32474,10.44896,.52404,.80586,3.0079,3.3912,3.05784,4.07519-4.88493-66.90987,6.5346-134.46078,33.14189-196.04687,.32836-.76003-1.96915-4.62449-2.0003-4.68576-1.84173-3.62283-3.84762-7.18828-5.88669-10.70186-2.043-3.52034-4.10542-7.03613-6.32474-10.44896-.29428-.45253-3.0588-4.07297-3.05784-4.07519h0Z"/><path class="cls-1" d="M307.12786,61.3201c8.50474-8.09751,18.57278-14.30566,29.72424-18.04087,8.70984-2.91739,25.2805-7.98805,32.05196,.89765l-11.1441-18.09597,.66912,1.19904-5.50859-10.74733c3.53464,9.14991-4.86609,18.95606-9.752,25.90769-6.48323,9.2243-13.11552,18.34381-19.89517,27.3525-13.56059,18.01911-27.71977,35.5786-42.40892,52.68945-1.22724,1.42957,6.96114,13.79227,7.88699,15.38763,.67004,1.15456,9.42484,14.47493,9.38258,14.52415,20.60622-24.00344,40.15179-48.90488,58.5052-74.67311,4.15318-5.83107,8.90156-11.6368,11.97687-18.13663,3.18017-6.72144,2.76656-11.98828-.53594-18.47467-3.36736-6.61379-7.12517-13.07479-11.01605-19.39048-2.05394-3.33397-4.13164-7.25471-7.3847-9.59848-5.14556-3.70727-12.38786-2.70091-18.24595-1.72019-15.66256,2.62212-30.10391,10.08591-41.57513,21.00785-1.16626,1.11042,7.05673,13.95698,7.88699,15.38763,.6367,1.09711,9.1856,14.7117,9.38258,14.52415h0Z"/><path class="cls-1" d="M392.39748,15.09044c-29.84651,59.67984-42.8387,127.04142-37.32863,193.54058,.12343,1.48963,1.40522,3.51519,2.0003,4.68576,1.84173,3.62283,3.84762,7.18828,5.88669,10.70186,2.043,3.52034,4.10542,7.03613,6.32474,10.44896,.5316,.81749,2.99966,3.37301,3.05784,4.07519-5.51007-66.49915,7.48212-133.86073,37.32863-193.54058,.34846-.69677-2.01235-4.70946-2.0003-4.68576-1.84173-3.62283-3.84762-7.18828-5.88669-10.70186-2.043-3.52034-4.10542-7.03613-6.32474-10.44896-.28375-.43634-3.03474-4.12138-3.05784-4.07519h0Z"/><path class="cls-1" d="M401.28106,55.57459c11.98563-8.43162,27.01622-18.22243,42.01325-11.21326,1.50072,.70139,2.89612,1.54763,4.17523,2.59887,10.68539,8.78185-13.22997-32.47012-11.02114-19.86953,.72775,4.15154,.28069,8.08012-1.01779,12.06385-2.60726,7.99906-7.81799,14.95941-12.59088,21.76888-19.82106,28.27867-42.30214,54.6221-66.99564,78.75693-1.17644,1.14982,7.04544,13.93754,7.88699,15.38763,.63949,1.10192,9.21875,14.68427,9.38258,14.52415,22.33045-21.82524,42.8593-45.45037,61.23889-70.69722,7.88166-10.82652,20.19736-24.35226,19.76572-38.60787-.09913-3.27383-1.03069-6.30566-2.3826-9.27049-3.15648-6.92236-7.14237-13.54528-11.07733-20.04042-3.76187-6.20944-7.33141-12.83813-14.04005-16.22907-15.05861-7.61152-30.49479,2.39525-42.60682,10.91578-1.86325,1.31075,17.02914,30.08092,17.26957,29.91178h0Z"/></svg>